<?xml version="1.0" encoding="utf-8"?>
<!-- Generator: Adobe Illustrator 26.2.1, SVG Export Plug-In . SVG Version: 6.00 Build 0)  -->
<svg version="1.1" id="Layer_1" xmlns="http://www.w3.org/2000/svg" xmlns:xlink="http://www.w3.org/1999/xlink" x="0px" y="0px"
	 viewBox="0 0 1815.4 370.5" style="enable-background:new 0 0 1815.4 370.5;" xml:space="preserve">
<style type="text/css">
	.st0{fill:#785BA7;}
	.st1{fill:#68BDBF;}
	.st2{fill:#36A7AA;}
	.st3{fill:#4AB0B3;}
</style>
<g>
	<path class="st0" d="M337.5,169.1L337.5,169.1L337.5,169.1z"/>
</g>
<g>
	<path class="st1" d="M321.2,305.5c-0.2,0.6-0.4,1.2-0.7,1.8c-1.2,3-2.7,5.8-4.7,8.5c-14.4,20.1-42.5,22.6-60.2,7.4
		c-0.4-0.3-0.7-0.6-1.1-1c-2.1-2-4-4.2-5.8-6.7l-17.3-24.6c-16.4-23.2-36.7-43.2-59.6-59.1c-10.5-7.2-21.4-13.6-32.9-19.1
		c-12.1-5.8-24.8-10.6-37.8-14.3l-28.4-8.1C54.1,185,43,168.2,43,150.9c0-8.1,2.4-16.3,7.7-23.6C59,115.5,72,109.7,85,110.1
		c12.4,0.3,24.6,6.1,32.6,17.3l16.9,24.3c3.9,5.6,8.1,11,12.4,16.2c2.5,3,5,5.8,7.7,8.6c7.5,8.2,15.6,15.8,24.2,22.8
		c19.1,15.7,40.6,28.4,63.8,37.5c7.2,3,14.7,5.5,22.2,7.7l29,8.3c4.8,1.4,9.2,3.5,12.9,6.3l8,10.4
		C323.1,280.4,324.8,293.8,321.2,305.5z"/>
	<g>
		<g>
			
				<ellipse transform="matrix(0.1601 -0.9871 0.9871 0.1601 136.7485 458.7155)" class="st2" cx="337.9" cy="149" rx="41.6" ry="41.6"/>
		</g>
	</g>
	<g>
		<path class="st2" d="M121.6,124.5l17,24.3c3.8,5.4,7.9,10.7,12.2,15.8c0.5,0.6,1.1,1.2,1.6,1.9c0,0,0.1,0,0.1,0
			c3.6-11.9,6.2-24.1,7.8-36.4c-9.8-2-19.5-4.6-29-7.9l-17.1-5.9C117,118.7,119.5,121.5,121.6,124.5z"/>
		<path class="st2" d="M366.6,119.1c-4.8-4.5-10.7-8-17-9.9c-1.3-0.4-2.6-0.7-3.9-1c-1.2-0.2-2.3-0.4-3.5-0.5
			c-1.5-0.2-3.1-0.3-4.6-0.3c-0.8,0-1.6,0.2-2.4,0.2c-0.8,0.1-1.5,0.1-2.3,0.2c-3.2,0.4-6.5,1-9.7,2.1l-28.3,10.3
			c-14.6,5.3-29.6,9.3-44.8,11.9c-11.8,1.9-23.8,3-35.9,3.2c-5.6,8.4-10.7,17.2-15.2,26.3c8.1,0,16.3,0.4,24.4,1.3
			c11.5,1.1,23,3,34.2,5.6c12.8,2.8,25.4,6.4,37.7,10.5l25.9,8.1c0.1,0,0.1,0.1,0.3,0.1l2.9,1c3.2,0.9,6.4,1.4,10.1,1.4
			c17.8,0,38.7-12.1,43.9-31.5c0-0.1,0-0.3,0.1-0.4c0.7-2.9,1.2-5.9,1.1-9.1C379.2,136.7,374.3,126.5,366.6,119.1z"/>
	</g>
	<g>
		<path class="st3" d="M171,237.4c-0.7-0.5-1.4-1-2.1-1.5c-10.1-7-21-13.3-32.2-18.7c-0.1,0-0.2-0.1-0.2-0.1
			c-6.2,11-13.3,21.6-21.2,31.6l-18.7,23.5c-17.8,22.2-8.2,55.1,18.5,64.5c26.7,9.4,54.6-10.7,54.4-38.9l-0.2-30.2
			C169.2,257.5,169.8,247.3,171,237.4z"/>
	</g>
	<g>
		<path class="st2" d="M259.2,173.9c-0.9-0.2-1.8-0.4-2.7-0.6c-10.4-2.4-20.8-4.1-30.9-5.2c8.4,20.1,13.9,41.3,16.5,63.1
			c0.8,0.3,1.6,0.7,2.4,1c7,2.8,14.3,5.4,21.8,7.5l29,8.3c1.4,0.4,2.8,0.9,4.1,1.4l-2.5-3.2C280,224.3,267.3,199.8,259.2,173.9z"/>
		<path class="st2" d="M208.5,134.7c0.5-0.7,1-1.5,1.5-2.2l1.5-2.2l2.6,0c11.7-0.2,23.5-1.2,35.1-3.1c0.1,0,0.2,0,0.2,0
			c-1-9.8-1.4-19.6-1.1-29.5l0.7-29c0.1-2.1-0.1-4.2-0.4-6.4c-0.1-0.7-0.1-1.5-0.4-2.2c-0.1-0.4-0.1-0.8-0.2-1.2c-0.3-1-0.5-2-0.8-3
			c-1.2-3.9-2.9-7.6-5.2-10.8c-0.4-0.7-0.9-1.2-1.4-1.8c-9.8-12.7-27.1-19.1-44.1-13.5c-17.4,5.7-27.6,21.7-27.6,38.1
			c0,8.4,2.6,17,8.4,24.3l17.6,22.8C199.8,121.3,204.3,127.9,208.5,134.7z"/>
	</g>
	<path class="st3" d="M156.4,171.1c0.6,0.7,1.2,1.3,1.8,1.9l0.1,0.1c6.8,7.5,14.2,14.5,22,20.9c8.8-28,22.7-54.3,41.3-77.6
		l18.5-23.1c17.6-22.2,8-55.1-18.7-64.2C194.8,19.8,167,39.7,167.2,68l0.2,29.5C167.6,122.7,163.8,147.5,156.4,171.1z"/>
</g>
<g>
	<path d="M425,246.2c0-1.9,1.3-2.9,3.2-2.9h21.4c1.9,0,2.9,1,2.9,2.6c0,19.4,9.1,27.5,31.1,27.5c21,0,32-7.1,32-20.7
		c0-9.7-5.8-16.2-18.8-21.7l-36.9-15.2c-23.6-9.7-32.7-21-32.7-41.1c0-28.5,18.1-43.1,54.1-43.1c36.6,0,57.9,16.2,57.9,44
		c0,1.9-1.3,2.9-3.2,2.9h-21.4c-1.9,0-3.2-1.3-3.2-5.2c0-11-11-17.8-29.1-17.8c-18.8,0-27.5,6.2-27.5,19.1c0,9.7,3.6,12.6,18.8,19.1
		l36.9,15.5c23,9.7,32.7,21.7,32.7,41.8c0,29.8-21.4,46.3-59.9,46.3C444.4,297.3,425,280.5,425,246.2z"/>
	<path d="M592.6,246.5v-87.4h-24.9c-1.9,0-3.2-1.3-3.2-3.2v-17.2c0-1.9,1.3-3.2,3.2-3.2h25.6l3.6-38.8c0.3-2.3,1.6-3.2,3.6-3.2h16.2
		c1.9,0,3.2,1,3.2,3.2l0.3,38.8h48.2c1.9,0,3.2,1.3,3.2,3.2v17.2c0,1.9-1.3,3.2-3.2,3.2h-48.2v86.7c0,20.4,6.5,27.5,23.6,27.5
		c8.7,0,17.8-2.3,24.3-5.2c2.3-1,3.9,0,3.9,2.3v17.8c0,1.6-0.6,2.9-2.6,3.6c-7.8,3.2-18.1,5.5-31.7,5.5
		C604.6,297.3,592.6,280.5,592.6,246.5z"/>
	<path d="M698.5,239.7v-45.3c0-40.8,22.7-62.8,64.4-62.8c41.8,0,64.1,21.4,64.1,61.2V218c0,1.9-1.3,3.2-3.2,3.2H726v10.4
		c0,29.1,11.3,41.4,38.5,41.4c20.4,0,31.7-6.8,31.7-19.7c0-2.3,1.6-3.6,3.6-3.6h21c1.6,0,2.9,1.3,3.2,2.9
		c1.6,27.5-22,44.7-61.2,44.7C721.5,297.3,698.5,277.9,698.5,239.7z M799.5,197.6v-1.9c0-27.2-12-39.8-36.3-39.8
		c-24.9,0-37.2,13.6-37.2,40.1v1.6H799.5z"/>
	<path d="M870.7,290.2V75.6c0-1.9,1.3-3.2,3.2-3.2h21c1.9,0,3.2,1.3,3.2,3.2v214.6c0,1.9-1.3,3.2-3.2,3.2h-21
		C872,293.4,870.7,292.1,870.7,290.2z"/>
	<path d="M942.5,233.2v-37.5c0-43.1,22.7-64.1,66.7-64.1c43.4,0,66.7,21,66.7,64.1v37.5c0,43-22.7,64.1-66.7,64.1
		C965.5,297.3,942.5,276.3,942.5,233.2z M1048.4,230.6v-32.4c0-28.5-11.7-42.4-39.2-42.4c-27.5,0-39.2,13.9-39.2,42.4v32.4
		c0,28.5,11.7,42.4,39.2,42.4C1036.7,273.1,1048.4,259.1,1048.4,230.6z"/>
	<path d="M1130.3,289.9V161.4h-24.9c-1.9,0-3.2-1.6-3.2-3.6v-19.4c0-1.9,1.3-3.2,3.2-3.2h24.9v-15.9c0-32.4,19.7-50.8,53.4-50.8
		c10.7,0,22.7,2.3,30.1,5.2c3.9,1.3,5.8,2.9,5.8,5.2v19.1c0,2.9-1.6,4.2-7.4,1.6c-6.8-2.6-17.2-4.9-24.9-4.9
		c-17.5,0-26.2,8.7-26.2,25.6v14.9h45.3c1.9,0,3.2,1.3,3.2,3.2v19.4c0,1.9-1.3,3.6-3.2,3.6H1161v128.5c0,2.3-1.6,3.6-3.6,3.6h-24
		C1131.6,293.4,1130.3,292.1,1130.3,289.9z"/>
	<path d="M1367.2,293.4h-20.4c-2.6,0-3.9-1-4.2-3.2c-1-6.8-1.9-13.9-2.3-21.4c-19.1,18.1-38.2,28.5-58.3,28.5
		c-27.8,0-42.7-18.8-42.7-53.7V138.4c0-1.9,1.3-3.2,3.2-3.2h24c1.9,0,3.6,1.3,3.6,3.2v102.3c0,20.4,6.8,29.8,22,29.8
		c13.9,0,26.9-7.4,46-25.9V138.4c0-1.9,1.3-3.2,3.2-3.2h24c1.9,0,3.6,1.3,3.6,3.2v115.2c0,12,0.3,24.6,1.9,36.3
		C1371.1,292.1,1369.8,293.4,1367.2,293.4z"/>
	<path d="M1548.8,185v104.9c0,2.3-1.3,3.6-3.2,3.6h-24c-2.3,0-3.6-1.3-3.6-3.6v-102c0-20.4-8.1-29.8-25.2-29.8
		c-14.6,0-27.5,7.1-46.9,25.6v106.2c0,2.3-1.6,3.6-3.6,3.6h-24c-1.9,0-3.2-1.3-3.2-3.6V175c0-11.3-1.3-27.5-2.3-35.6
		c-0.3-2.6,0.6-4.2,3.2-4.2h22c2.3,0,3.2,0.6,3.9,3.2c1,3.9,1.9,12.6,2.6,20.4c19.1-18.8,35.6-27.5,56.6-27.5
		C1532.3,131.3,1548.8,149.4,1548.8,185z"/>
	<path d="M1723.6,293.4h-21.4c-2.3,0-3.6-1-3.9-3.6c-0.6-5.5-1.9-14.2-2.3-20.7c-19.4,18.5-36.3,28.2-57.6,28.2
		c-30.4,0-46.6-20.1-46.6-59.2v-41.8c0-41.4,21.4-65.1,58.3-65.1c14.9,0,33.3,3.9,44,9.7V75.9c0-2.3,1.3-3.6,3.2-3.6h24
		c1.9,0,3.6,1.3,3.6,3.6v180.3c0,9.7,0.6,25.9,1.9,32.7C1727.5,291.8,1726.2,293.4,1723.6,293.4z M1647.8,270.5
		c14.2,0,26.5-6.8,46.3-25.6v-78.3c-12.6-5.8-26.9-8.7-37.5-8.7c-23,0-34,14.2-34,41.8v38.2C1622.6,259.5,1630.7,270.5,1647.8,270.5
		z"/>
</g>
</svg>
